<svg width="64" height="64" viewBox="0 0 64 64" fill="none" xmlns="http://www.w3.org/2000/svg">
<path fill-rule="evenodd" clip-rule="evenodd" d="M32.0001 2.66669C15.8001 2.66669 2.66675 15.8 2.66675 32C2.66675 48.2 15.8001 61.3334 32.0001 61.3334C48.2001 61.3334 61.3334 48.2 61.3334 32C61.3334 15.8 48.2001 2.66669 32.0001 2.66669ZM34.6667 42.6667C34.6667 43.3739 34.3858 44.0522 33.8857 44.5523C33.3856 45.0524 32.7073 45.3334 32.0001 45.3334C31.2928 45.3334 30.6146 45.0524 30.1145 44.5523C29.6144 44.0522 29.3334 43.3739 29.3334 42.6667V34.6667H21.3334C20.6262 34.6667 19.9479 34.3857 19.4478 33.8856C18.9477 33.3855 18.6667 32.7073 18.6667 32C18.6667 31.2928 18.9477 30.6145 19.4478 30.1144C19.9479 29.6143 20.6262 29.3334 21.3334 29.3334H29.3334V21.3334C29.3334 20.6261 29.6144 19.9478 30.1145 19.4477C30.6146 18.9476 31.2928 18.6667 32.0001 18.6667C32.7073 18.6667 33.3856 18.9476 33.8857 19.4477C34.3858 19.9478 34.6667 20.6261 34.6667 21.3334V29.3334H42.6667C43.374 29.3334 44.0523 29.6143 44.5524 30.1144C45.0525 30.6145 45.3334 31.2928 45.3334 32C45.3334 32.7073 45.0525 33.3855 44.5524 33.8856C44.0523 34.3857 43.374 34.6667 42.6667 34.6667H34.6667V42.6667Z" fill="url(#paint0_linear_267_109)"/>
<defs>
<linearGradient id="paint0_linear_267_109" x1="2.66675" y1="32" x2="61.3334" y2="32" gradientUnits="userSpaceOnUse">
<stop stop-color="#2AF598"/>
<stop offset="1" stop-color="#009EFD"/>
</linearGradient>
</defs>
</svg>
