<svg width="29" height="29" viewBox="0 0 29 29" fill="none" xmlns="http://www.w3.org/2000/svg">
<path d="M23.7954 23.9182L19.0586 19.1814L23.7954 23.9182ZM19.0586 19.1814C19.8189 18.4211 20.4219 17.5185 20.8334 16.5251C21.2449 15.5318 21.4566 14.4671 21.4566 13.3919C21.4566 12.3167 21.2449 11.252 20.8334 10.2587C20.4219 9.2653 19.8189 8.36271 19.0586 7.60242C18.2983 6.84214 17.3957 6.23905 16.4023 5.82759C15.409 5.41612 14.3443 5.20435 13.2691 5.20435C12.1939 5.20435 11.1292 5.41612 10.1359 5.82759C9.14249 6.23905 8.23991 6.84214 7.47962 7.60242C5.94416 9.13789 5.08154 11.2204 5.08154 13.3919C5.08154 15.5634 5.94416 17.6459 7.47962 19.1814C9.01509 20.7168 11.0976 21.5794 13.2691 21.5794C15.4406 21.5794 17.5231 20.7168 19.0586 19.1814V19.1814Z" stroke="white" stroke-width="3" stroke-linecap="round" stroke-linejoin="round"/>
</svg>
